<svg width="158" height="169" viewBox="0 0 158 169" fill="none" xmlns="http://www.w3.org/2000/svg">
<path d="M27.75 22.75H122.25V43.75H27.75V22.75ZM33 49H117V117.25H33V49ZM61.875 64.75C61.1788 64.75 60.5111 65.0266 60.0188 65.5188C59.5266 66.0111 59.25 66.6788 59.25 67.375V75.25H90.75V67.375C90.75 66.6788 90.4734 66.0111 89.9812 65.5188C89.4889 65.0266 88.8212 64.75 88.125 64.75H61.875Z" fill="white"/>
<path d="M37.0625 148.141H26.7344L24.0469 154H20.125L32.0625 128.359L43.5781 154H39.5938L37.0625 148.141ZM35.5781 144.719L32 136.516L28.25 144.719H35.5781ZM45.9375 138.781H49.4531V140.141C50.099 139.464 50.6719 139 51.1719 138.75C51.6823 138.49 52.2865 138.359 52.9844 138.359C53.9115 138.359 54.8802 138.661 55.8906 139.266L54.2812 142.484C53.6146 142.005 52.9635 141.766 52.3281 141.766C50.4115 141.766 49.4531 143.214 49.4531 146.109V154H45.9375V138.781ZM69.4688 139.438V144.109C68.6667 143.13 67.9479 142.458 67.3125 142.094C66.6875 141.719 65.9531 141.531 65.1094 141.531C63.7865 141.531 62.6875 141.995 61.8125 142.922C60.9375 143.849 60.5 145.01 60.5 146.406C60.5 147.833 60.9219 149.005 61.7656 149.922C62.6198 150.839 63.7083 151.297 65.0312 151.297C65.875 151.297 66.6198 151.115 67.2656 150.75C67.8906 150.396 68.625 149.708 69.4688 148.688V153.328C68.0417 154.068 66.6146 154.438 65.1875 154.438C62.8333 154.438 60.8646 153.677 59.2812 152.156C57.6979 150.625 56.9062 148.724 56.9062 146.453C56.9062 144.182 57.7083 142.266 59.3125 140.703C60.9167 139.141 62.8854 138.359 65.2188 138.359C66.7188 138.359 68.1354 138.719 69.4688 139.438ZM73.7188 127.609H77.2344V140.047C78.4844 138.922 79.8646 138.359 81.375 138.359C83.0938 138.359 84.4688 138.917 85.5 140.031C86.375 141 86.8125 142.547 86.8125 144.672V154H83.2969V145C83.2969 143.781 83.0781 142.901 82.6406 142.359C82.2135 141.807 81.5208 141.531 80.5625 141.531C79.3333 141.531 78.4688 141.911 77.9688 142.672C77.4792 143.443 77.2344 144.766 77.2344 146.641V154H73.7188V127.609ZM94.7969 138.781V154H91.2812V138.781H94.7969ZM90.75 132.453C90.75 131.839 90.974 131.307 91.4219 130.859C91.8698 130.411 92.4062 130.188 93.0312 130.188C93.6667 130.188 94.2083 130.411 94.6562 130.859C95.1042 131.297 95.3281 131.833 95.3281 132.469C95.3281 133.104 95.1042 133.646 94.6562 134.094C94.2188 134.542 93.6823 134.766 93.0469 134.766C92.4115 134.766 91.8698 134.542 91.4219 134.094C90.974 133.646 90.75 133.099 90.75 132.453ZM101.141 138.781L105.078 147.328L109 138.781H112.953L105.047 155.047L97.2031 138.781H101.141ZM128.641 147.219H117.734C117.828 148.469 118.234 149.464 118.953 150.203C119.672 150.932 120.594 151.297 121.719 151.297C122.594 151.297 123.318 151.089 123.891 150.672C124.453 150.255 125.094 149.484 125.812 148.359L128.781 150.016C128.323 150.797 127.839 151.469 127.328 152.031C126.818 152.583 126.271 153.042 125.688 153.406C125.104 153.76 124.474 154.021 123.797 154.188C123.12 154.354 122.385 154.438 121.594 154.438C119.323 154.438 117.5 153.708 116.125 152.25C114.75 150.781 114.062 148.833 114.062 146.406C114.062 144 114.729 142.052 116.062 140.562C117.406 139.094 119.188 138.359 121.406 138.359C123.646 138.359 125.417 139.073 126.719 140.5C128.01 141.917 128.656 143.88 128.656 146.391L128.641 147.219ZM125.031 144.344C124.542 142.469 123.359 141.531 121.484 141.531C121.057 141.531 120.656 141.599 120.281 141.734C119.906 141.859 119.562 142.047 119.25 142.297C118.948 142.536 118.688 142.828 118.469 143.172C118.25 143.516 118.083 143.906 117.969 144.344H125.031Z" fill="white"/>
<rect y="140" width="158" height="11" fill="black"/>
<g clip-path="url(#clip0_51_298)">
<path d="M96.9165 109.822C100.535 110.315 103.763 109.482 106.602 107.324C109.44 105.165 111.106 102.277 111.598 98.6589C112.091 95.0406 111.258 91.8122 109.1 88.9738C106.942 86.1353 104.054 84.4698 100.435 83.9771C96.817 83.4845 93.5886 84.3173 90.7501 86.4755C87.9117 88.6336 86.2461 91.5219 85.7535 95.1401C85.2609 98.7584 86.0936 101.987 88.2518 104.825C90.41 107.664 93.2982 109.329 96.9165 109.822ZM124.574 130.961C123.497 131.78 122.227 132.089 120.762 131.89C119.298 131.691 118.156 131.053 117.338 129.976L108.407 118.231C106.434 119.19 104.352 119.828 102.161 120.144C99.9695 120.46 97.7523 120.465 95.509 120.16C89.0478 119.28 83.8644 116.272 79.9589 111.135C76.0533 105.999 74.5389 100.198 75.4156 93.7326C76.2923 87.2675 79.3022 82.0844 84.4453 78.1832C89.5883 74.282 95.3875 72.7674 101.843 73.6392C108.298 74.5111 113.483 77.5212 117.397 82.6696C121.312 87.818 122.825 93.6169 121.936 100.066C121.631 102.306 121.033 104.441 120.143 106.472C119.252 108.502 118.081 110.338 116.629 111.979L125.559 123.725C126.378 124.801 126.688 126.072 126.488 127.536C126.289 129.001 125.651 130.143 124.574 130.961ZM35.3623 117.236C32.5194 116.849 30.2242 115.506 28.4768 113.208C26.7295 110.91 26.0478 108.337 26.4319 105.49L37.6919 22.787C38.0789 19.9441 39.4233 17.6492 41.7249 15.9022C44.0265 14.1553 46.5973 13.4734 49.4373 13.8566L86.5245 18.906C87.9029 19.0937 89.1823 19.5311 90.3628 20.2183C91.5434 20.9055 92.5412 21.7872 93.3564 22.8634L115.013 51.346C115.831 52.4226 116.414 53.6216 116.76 54.9429C117.107 56.2641 117.187 57.6122 117 58.9872L116.683 61.3132C116.472 62.8639 115.676 64.0279 114.296 64.8052C112.916 65.5826 111.482 65.6505 109.994 65.0091C108.909 64.5982 107.815 64.251 106.713 63.9676C105.611 63.6842 104.457 63.4621 103.25 63.3013C93.0846 61.9173 84.4313 64.249 77.2902 70.2964C70.1491 76.3439 65.9863 83.7181 64.8016 92.4192C64.2856 96.2097 64.4439 100.048 65.2765 103.935C66.1092 107.821 67.7224 111.595 70.1162 115.255C71.1464 116.711 71.232 118.171 70.373 119.633C69.514 121.096 68.3109 121.722 66.7637 121.511L35.3623 117.236ZM84.2124 29.1207L81.3974 49.7965C81.1981 51.2611 81.527 52.5571 82.3843 53.6847C83.2416 54.8122 84.4011 55.4738 85.8627 55.6692L106.538 58.4842L84.2124 29.1207Z" fill="#FF0000"/>
</g>
<path d="M8.06085 152.495L8.21763 156.523L9.37301 156.479C10.1433 156.449 10.6956 156.578 11.03 156.867C11.3744 157.146 11.556 157.525 11.5746 158.003C11.5928 158.472 11.4413 158.863 11.12 159.178C10.8086 159.482 10.2678 159.649 9.49758 159.679L4.64189 159.868C3.87164 159.898 3.3143 159.774 2.96987 159.495C2.63545 159.206 2.45892 158.822 2.44029 158.343C2.42206 157.875 2.57381 157.488 2.89555 157.184C3.21688 156.869 3.75747 156.697 4.51731 156.667L5.01693 156.648L4.52956 144.126L4.02994 144.146C3.25969 144.176 2.70235 144.051 2.35792 143.773C2.0235 143.484 1.84697 143.1 1.82834 142.621C1.8097 142.142 1.95605 141.751 2.26738 141.447C2.58871 141.132 3.1345 140.959 3.90475 140.929L11.1499 140.663C13.4086 140.575 15.1791 141.069 16.4615 142.145C17.7539 143.21 18.4313 144.544 18.4937 146.147C18.5326 147.146 18.2766 148.069 17.7257 148.914C17.1744 149.748 16.3231 150.506 15.1716 151.186C15.8712 151.753 16.6242 152.485 17.4305 153.382C17.9324 153.956 18.6138 154.857 19.4747 156.085C20.2866 156.054 20.8259 156.116 21.0926 156.273C21.5736 156.577 21.8254 157.021 21.8481 157.604C21.8663 158.072 21.72 158.463 21.409 158.778C21.0977 159.082 20.5569 159.249 19.7867 159.279L17.9599 159.35C15.2122 155.443 12.969 153.117 11.2303 152.372L8.06085 152.495ZM7.93627 149.295L10.4344 149.197C11.3608 149.161 12.1828 148.989 12.9005 148.679C13.8643 148.266 14.5047 147.845 14.8215 147.416C15.1488 146.986 15.3046 146.568 15.2888 146.162C15.2653 145.559 14.9209 145.014 14.2557 144.53C13.5901 144.034 12.638 143.811 11.3994 143.859L7.73026 144.002L7.93627 149.295ZM27.2545 151.076L27.4375 155.775L35.6031 155.458L35.5357 153.725C35.5057 152.954 35.6302 152.402 35.9091 152.068C36.1979 151.723 36.5818 151.542 37.0606 151.523C37.529 151.505 37.9154 151.656 38.2198 151.978C38.5342 152.289 38.7064 152.83 38.7364 153.6L38.9284 158.534L23.8617 159.12C23.0915 159.15 22.5341 159.026 22.1897 158.747C21.8553 158.458 21.6787 158.074 21.6601 157.595C21.6419 157.127 21.7936 156.74 22.1154 156.436C22.4367 156.121 22.9773 155.949 23.7371 155.919L24.2368 155.9L23.7494 143.378L23.2498 143.398C22.4795 143.428 21.9222 143.303 21.5777 143.025C21.2433 142.736 21.0668 142.352 21.0482 141.873C21.0295 141.394 21.1759 141.003 21.4872 140.699C21.8085 140.384 22.3543 140.211 23.1246 140.181L37.4893 139.638L37.6789 144.509C37.7085 145.269 37.584 145.821 37.3055 146.166C37.0267 146.5 36.6478 146.676 36.169 146.695C35.6902 146.713 35.2936 146.567 34.9792 146.256C34.6752 145.945 34.5082 145.404 34.4782 144.634L34.4132 142.963L26.9501 143.254L27.13 147.875L29.9403 147.766C29.9079 146.933 29.9651 146.394 30.1119 146.148C30.4148 145.626 30.8628 145.353 31.4561 145.33C31.9245 145.312 32.3109 145.463 32.6153 145.785C32.9297 146.096 33.1019 146.637 33.1319 147.407L33.2753 151.092C33.3025 151.789 33.2374 152.261 33.0802 152.507C32.7662 153.009 32.3281 153.271 31.766 153.293C31.1727 153.316 30.7048 153.079 30.3623 152.581C30.1969 152.348 30.0977 151.81 30.0649 150.966L27.2545 151.076ZM45.3451 157.471C45.077 157.815 44.8563 158.037 44.683 158.138C44.5201 158.238 44.3138 158.293 44.0639 158.303C43.5747 158.322 43.1729 158.176 42.8585 157.865C42.5541 157.543 42.3871 157.002 42.3575 156.242L42.2737 154.088C42.2437 153.317 42.3681 152.765 42.647 152.431C42.9359 152.086 43.325 151.905 43.8142 151.886C44.1889 151.871 44.505 151.958 44.7625 152.146C45.0304 152.333 45.2412 152.659 45.3947 153.122C45.5479 153.575 45.7005 153.881 45.8527 154.042C46.1671 154.353 46.716 154.66 47.4992 154.963C48.2824 155.266 49.132 155.4 50.048 155.364C51.474 155.309 52.632 154.93 53.522 154.228C54.0891 153.8 54.3611 153.289 54.338 152.696C54.3226 152.3 54.1677 151.936 53.8733 151.603C53.5785 151.26 53.1092 150.987 52.4653 150.783C52.0429 150.643 51.103 150.466 49.6457 150.251C47.8844 149.997 46.5473 149.658 45.6343 149.235C44.7214 148.811 43.9884 148.194 43.4356 147.381C42.8827 146.569 42.5875 145.679 42.5498 144.711C42.4902 143.18 43.0783 141.818 44.314 140.623C45.5493 139.418 47.1923 138.775 49.2428 138.696C50.0651 138.664 50.8286 138.728 51.5333 138.888C52.2479 139.037 52.8988 139.288 53.4859 139.641C53.8864 139.219 54.2949 138.999 54.7112 138.983C55.1796 138.965 55.566 139.117 55.8705 139.438C56.1849 139.749 56.3569 140.285 56.3864 141.045L56.48 143.449C56.51 144.219 56.3805 144.777 56.0917 145.122C55.8128 145.456 55.4391 145.632 54.9707 145.65C54.5752 145.665 54.2271 145.559 53.9263 145.331C53.6904 145.163 53.5049 144.816 53.3697 144.289C53.2346 143.763 53.0741 143.389 52.8882 143.167C52.5709 142.783 52.1052 142.467 51.491 142.22C50.8767 141.973 50.1741 141.865 49.383 141.896C48.2276 141.941 47.3222 142.247 46.6667 142.815C46.0212 143.371 45.7098 143.941 45.7325 144.524C45.7478 144.92 45.8982 145.299 46.1834 145.664C46.4786 146.017 46.8957 146.287 47.4346 146.475C47.7942 146.607 48.7973 146.802 50.4441 147.062C52.1012 147.32 53.3745 147.625 54.2638 147.976C55.1635 148.327 55.9208 148.902 56.5357 149.702C57.1506 150.501 57.4802 151.468 57.5243 152.603C57.5859 154.185 57.0783 155.471 56.0014 156.462C54.572 157.768 52.7123 158.466 50.4223 158.555C49.5376 158.59 48.6694 158.514 47.8178 158.328C46.977 158.153 46.1527 157.867 45.3451 157.471ZM65.663 149.581L65.8459 154.28L74.0116 153.963L73.9441 152.23C73.9141 151.459 74.0386 150.907 74.3175 150.573C74.6064 150.228 74.9902 150.047 75.469 150.028C75.9374 150.01 76.3238 150.162 76.6282 150.483C76.9426 150.794 77.1148 151.335 77.1448 152.105L77.3368 157.039L62.2701 157.625C61.4999 157.655 60.9425 157.531 60.5981 157.252C60.2637 156.963 60.0872 156.579 60.0685 156.1C60.0503 155.632 60.202 155.245 60.5238 154.941C60.8451 154.626 61.3857 154.454 62.1455 154.424L62.6452 154.405L62.1578 141.883L61.6582 141.903C60.8879 141.933 60.3306 141.808 59.9862 141.53C59.6517 141.241 59.4752 140.857 59.4566 140.378C59.4379 139.899 59.5843 139.508 59.8956 139.204C60.2169 138.889 60.7627 138.716 61.533 138.686L75.8977 138.143L76.0873 143.014C76.1169 143.774 75.9924 144.326 75.714 144.671C75.4351 145.005 75.0562 145.181 74.5774 145.2C74.0986 145.218 73.702 145.072 73.3876 144.761C73.0836 144.45 72.9166 143.909 72.8866 143.139L72.8216 141.468L65.3585 141.759L65.5384 146.38L68.3487 146.271C68.3163 145.438 68.3735 144.899 68.5204 144.654C68.8232 144.131 69.2712 143.858 69.8645 143.835C70.3329 143.817 70.7193 143.969 71.0237 144.29C71.3382 144.601 71.5104 145.142 71.5403 145.912L71.6838 149.597C71.7109 150.294 71.6459 150.766 71.4886 151.012C71.1746 151.514 70.7365 151.776 70.1745 151.798C69.5812 151.821 69.1132 151.584 68.7707 151.086C68.6053 150.853 68.5061 150.315 68.4733 149.472L65.663 149.581ZM92.1718 151.301L84.3964 151.604L83.6917 153.586L84.4724 153.555C85.2426 153.526 85.795 153.655 86.1294 153.944C86.4738 154.223 86.6554 154.602 86.674 155.08C86.6922 155.549 86.5407 155.94 86.2193 156.255C85.908 156.559 85.3672 156.726 84.597 156.756L80.2877 156.924C79.5175 156.954 78.9653 156.829 78.6313 156.551C78.2865 156.262 78.1048 155.878 78.0861 155.399C78.0675 154.92 78.2241 154.523 78.5558 154.208C78.8875 153.893 79.4493 153.73 80.2412 153.72L84.7813 141.003L82.6891 141.084C81.9189 141.114 81.3615 140.99 81.0171 140.711C80.6827 140.422 80.5062 140.038 80.4875 139.559C80.4689 139.08 80.6152 138.689 80.9266 138.385C81.2479 138.07 81.7937 137.898 82.5639 137.868L89.4812 137.614L96.4633 153.089C97.2127 153.06 97.7104 153.124 97.9563 153.281C98.4485 153.606 98.7055 154.049 98.7274 154.611C98.7456 155.08 98.5992 155.471 98.2883 155.785C97.977 156.089 97.4362 156.256 96.666 156.286L92.3567 156.454C91.5865 156.484 91.0291 156.36 90.6847 156.081C90.3503 155.792 90.1738 155.408 90.1551 154.929C90.1369 154.461 90.2834 154.075 90.5948 153.771C90.9161 153.456 91.4619 153.283 92.2321 153.253L93.0128 153.223L92.1718 151.301ZM90.7201 148.152L87.8972 141.913L85.5521 148.353L90.7201 148.152ZM104.082 148.758L104.239 152.786L105.394 152.741C106.164 152.711 106.717 152.841 107.051 153.13C107.395 153.409 107.577 153.787 107.596 154.266C107.614 154.734 107.462 155.126 107.141 155.441C106.83 155.745 106.289 155.912 105.519 155.942L100.663 156.131C99.8927 156.161 99.3353 156.037 98.9909 155.758C98.6565 155.469 98.48 155.085 98.4613 154.606C98.4431 154.138 98.5949 153.751 98.9166 153.447C99.2379 153.132 99.7785 152.96 100.538 152.93L101.038 152.911L100.551 140.389L100.051 140.408C99.2807 140.438 98.7234 140.314 98.379 140.036C98.0445 139.746 97.868 139.362 97.8494 138.883C97.8307 138.405 97.9771 138.013 98.2884 137.709C98.6098 137.394 99.1555 137.222 99.9258 137.192L107.171 136.926C109.43 136.838 111.2 137.332 112.483 138.408C113.775 139.473 114.452 140.807 114.515 142.41C114.554 143.409 114.298 144.331 113.747 145.176C113.195 146.011 112.344 146.768 111.193 147.449C111.892 148.016 112.645 148.748 113.452 149.644C113.953 150.219 114.635 151.12 115.496 152.348C116.308 152.316 116.847 152.379 117.114 152.535C117.595 152.84 117.846 153.283 117.869 153.866C117.887 154.335 117.741 154.726 117.43 155.04C117.119 155.344 116.578 155.511 115.808 155.541L113.981 155.613C111.233 151.706 108.99 149.38 107.251 148.635L104.082 148.758ZM103.957 145.557L106.455 145.46C107.382 145.424 108.204 145.251 108.922 144.942C109.885 144.529 110.526 144.108 110.843 143.679C111.17 143.249 111.326 142.831 111.31 142.425C111.286 141.821 110.942 141.277 110.277 140.792C109.611 140.297 108.659 140.073 107.42 140.122L103.751 140.264L103.957 145.557ZM131.184 136.804C131.372 136.526 131.577 136.315 131.801 136.17C132.035 136.026 132.287 135.948 132.558 135.938C133.026 135.919 133.413 136.066 133.717 136.377C134.031 136.688 134.203 137.229 134.233 137.999L134.339 140.716C134.369 141.486 134.239 142.044 133.951 142.388C133.672 142.722 133.298 142.898 132.83 142.917C132.403 142.933 132.055 142.827 131.785 142.598C131.516 142.368 131.306 141.928 131.155 141.277C131.065 140.843 130.906 140.511 130.679 140.28C130.234 139.828 129.62 139.476 128.839 139.225C128.068 138.974 127.298 138.863 126.528 138.893C125.57 138.93 124.699 139.173 123.913 139.62C123.128 140.068 122.447 140.772 121.869 141.733C121.291 142.693 121.028 143.819 121.078 145.11L121.159 147.186C121.219 148.727 121.826 149.991 122.979 150.978C124.144 151.964 125.72 152.419 127.708 152.342C128.895 152.296 129.893 152.095 130.702 151.74C131.174 151.534 131.67 151.145 132.189 150.572C132.509 150.226 132.761 150.003 132.945 149.902C133.128 149.79 133.34 149.73 133.579 149.721C134.006 149.704 134.387 149.851 134.722 150.161C135.057 150.471 135.233 150.845 135.251 151.282C135.268 151.719 135.067 152.196 134.649 152.713C134.043 153.466 133.248 154.07 132.265 154.526C130.944 155.14 129.472 155.479 127.848 155.542C125.954 155.616 124.231 155.292 122.681 154.57C121.429 153.993 120.344 153.051 119.428 151.741C118.512 150.422 118.022 148.966 117.96 147.373L117.876 145.203C117.811 143.538 118.136 141.972 118.85 140.505C119.575 139.028 120.609 137.873 121.952 137.038C123.296 136.204 124.738 135.757 126.278 135.697C127.205 135.661 128.073 135.737 128.883 135.924C129.703 136.101 130.47 136.394 131.184 136.804ZM149.274 146.389L142.435 146.655L142.616 151.292L143.115 151.273C143.886 151.243 144.438 151.373 144.772 151.662C145.117 151.94 145.298 152.319 145.317 152.798C145.335 153.266 145.184 153.658 144.862 153.973C144.551 154.277 144.01 154.444 143.24 154.474L139.321 154.626C138.551 154.656 137.994 154.532 137.649 154.253C137.315 153.964 137.138 153.58 137.12 153.101C137.097 152.518 137.334 152.056 137.832 151.713C138.075 151.537 138.603 151.438 139.415 151.417L138.928 138.895C138.364 138.865 137.93 138.71 137.627 138.43C137.335 138.149 137.18 137.79 137.163 137.353C137.145 136.875 137.291 136.483 137.602 136.179C137.924 135.864 138.47 135.692 139.24 135.662L142.504 135.551C143.274 135.521 143.826 135.645 144.16 135.924C144.504 136.202 144.686 136.581 144.705 137.06C144.723 137.539 144.572 137.935 144.25 138.25C143.939 138.554 143.398 138.721 142.628 138.751L142.128 138.771L142.311 143.455L149.149 143.188L148.967 138.504L148.467 138.524C147.697 138.554 147.14 138.43 146.795 138.151C146.461 137.862 146.284 137.478 146.266 136.999C146.247 136.52 146.394 136.129 146.705 135.825C147.026 135.51 147.572 135.338 148.342 135.308L151.606 135.196C152.376 135.166 152.928 135.291 153.262 135.57C153.607 135.848 153.788 136.227 153.807 136.706C153.824 137.143 153.692 137.513 153.412 137.815C153.143 138.118 152.728 138.306 152.168 138.38L152.655 150.902C153.477 150.87 154.011 150.927 154.257 151.074C154.779 151.377 155.052 151.825 155.075 152.418C155.094 152.886 154.942 153.278 154.621 153.593C154.309 153.897 153.769 154.064 152.998 154.094L149.079 154.246C148.309 154.276 147.752 154.152 147.407 153.874C147.073 153.584 146.896 153.2 146.878 152.721C146.86 152.253 147.011 151.867 147.333 151.562C147.654 151.247 148.195 151.075 148.955 151.046L149.454 151.026L149.274 146.389Z" fill="#FF0000"/>
<defs>
<clipPath id="clip0_51_298">
<rect width="125.199" height="125.199" fill="white" transform="translate(25) rotate(7.7531)"/>
</clipPath>
</defs>
</svg>
