<svg width="158" height="164" viewBox="0 0 158 164" fill="none" xmlns="http://www.w3.org/2000/svg">
<path d="M79 27C84.5695 27 89.911 29.2125 93.8492 33.1508C97.7875 37.089 100 42.4305 100 48C100 53.5695 97.7875 58.911 93.8492 62.8492C89.911 66.7875 84.5695 69 79 69C73.4305 69 68.089 66.7875 64.1508 62.8492C60.2125 58.911 58 53.5695 58 48C58 42.4305 60.2125 37.089 64.1508 33.1508C68.089 29.2125 73.4305 27 79 27ZM79 79.5C102.205 79.5 121 88.8975 121 100.5V111H37V100.5C37 88.8975 55.795 79.5 79 79.5Z" fill="white"/>
<path d="M68.8995 94.0435C66.31 94.39 63.9709 93.7653 61.8819 92.1695C59.7929 90.5736 58.5734 88.4796 58.2233 85.8875L57.4358 80.0024C52.5537 77.5407 48.5572 74.0819 45.4466 69.626C42.3359 65.17 40.4167 60.2352 39.689 54.8213C38.4605 45.6407 40.6167 37.4256 46.1578 30.1761C51.6988 22.9266 59.0579 18.6862 68.235 17.4549C77.4121 16.2236 85.6288 18.3797 92.885 23.923C100.141 29.4664 104.38 36.8257 105.601 46.0009C106.326 51.4151 105.769 56.6622 103.932 61.742C102.094 66.8218 99.1499 71.2285 95.1001 74.9622L95.8876 80.8472C96.2341 83.4366 95.6097 85.7774 94.0142 87.8695C92.4188 89.9616 90.3246 91.1795 87.7316 91.5233L68.8995 94.0435ZM71.4196 112.876C70.0856 113.054 68.9078 112.752 67.886 111.968C66.8643 111.185 66.2628 110.128 66.0815 108.798L65.4515 104.09L93.6997 100.309L94.3297 105.017C94.5082 106.351 94.206 107.531 93.423 108.556C92.64 109.581 91.5829 110.181 90.2517 110.355L71.4196 112.876Z" fill="#FF0000"/>
<path d="M51.7188 130.172V134.484C49.6146 132.724 47.4375 131.844 45.1875 131.844C42.7083 131.844 40.6198 132.734 38.9219 134.516C37.2135 136.286 36.3594 138.453 36.3594 141.016C36.3594 143.547 37.2135 145.682 38.9219 147.422C40.6302 149.161 42.724 150.031 45.2031 150.031C46.4844 150.031 47.5729 149.823 48.4688 149.406C48.9688 149.198 49.4844 148.917 50.0156 148.562C50.5573 148.208 51.125 147.781 51.7188 147.281V151.672C49.6354 152.849 47.4479 153.437 45.1562 153.437C41.7083 153.437 38.7656 152.234 36.3281 149.828C33.901 147.401 32.6875 144.474 32.6875 141.047C32.6875 137.974 33.7031 135.234 35.7344 132.828C38.2344 129.88 41.4688 128.406 45.4375 128.406C47.6042 128.406 49.6979 128.995 51.7188 130.172ZM59.1719 126.609V153H55.6562V126.609H59.1719ZM67.1406 137.781V153H63.625V137.781H67.1406ZM63.0938 131.453C63.0938 130.838 63.3177 130.307 63.7656 129.859C64.2135 129.411 64.75 129.187 65.375 129.187C66.0104 129.187 66.5521 129.411 67 129.859C67.4479 130.297 67.6719 130.833 67.6719 131.469C67.6719 132.104 67.4479 132.646 67 133.094C66.5625 133.542 66.026 133.766 65.3906 133.766C64.7552 133.766 64.2135 133.542 63.7656 133.094C63.3177 132.646 63.0938 132.099 63.0938 131.453ZM85.4531 146.219H74.5469C74.6406 147.469 75.0469 148.463 75.7656 149.203C76.4844 149.932 77.4062 150.297 78.5312 150.297C79.4062 150.297 80.1302 150.088 80.7031 149.672C81.2656 149.255 81.9062 148.484 82.625 147.359L85.5938 149.016C85.1354 149.797 84.651 150.469 84.1406 151.031C83.6302 151.583 83.0833 152.042 82.5 152.406C81.9167 152.76 81.2865 153.021 80.6094 153.187C79.9323 153.354 79.1979 153.437 78.4062 153.437C76.1354 153.437 74.3125 152.708 72.9375 151.25C71.5625 149.781 70.875 147.833 70.875 145.406C70.875 143 71.5417 141.052 72.875 139.562C74.2188 138.094 76 137.359 78.2188 137.359C80.4583 137.359 82.2292 138.073 83.5312 139.5C84.8229 140.917 85.4688 142.88 85.4688 145.391L85.4531 146.219ZM81.8438 143.344C81.3542 141.469 80.1719 140.531 78.2969 140.531C77.8698 140.531 77.4688 140.599 77.0938 140.734C76.7188 140.859 76.375 141.047 76.0625 141.297C75.7604 141.536 75.5 141.828 75.2812 142.172C75.0625 142.516 74.8958 142.906 74.7812 143.344H81.8438ZM89.3125 137.781H92.8438V139.187C94.0729 137.969 95.4583 137.359 97 137.359C98.7708 137.359 100.151 137.917 101.141 139.031C101.995 139.979 102.422 141.526 102.422 143.672V153H98.8906V144.5C98.8906 143 98.6823 141.963 98.2656 141.391C97.8594 140.807 97.1198 140.516 96.0469 140.516C94.8802 140.516 94.0521 140.901 93.5625 141.672C93.0833 142.432 92.8438 143.76 92.8438 145.656V153H89.3125V137.781ZM110.5 141.062V153H106.984V141.062H105.484V137.781H106.984V132.203H110.5V137.781H113.234V141.062H110.5ZM124.469 140.375L121.562 141.922C121.104 140.984 120.536 140.516 119.859 140.516C119.536 140.516 119.26 140.625 119.031 140.844C118.802 141.052 118.688 141.323 118.688 141.656C118.688 142.239 119.365 142.818 120.719 143.391C122.583 144.193 123.839 144.932 124.484 145.609C125.13 146.286 125.453 147.198 125.453 148.344C125.453 149.812 124.911 151.042 123.828 152.031C122.776 152.969 121.505 153.437 120.016 153.437C117.464 153.437 115.656 152.193 114.594 149.703L117.594 148.312C118.01 149.042 118.328 149.505 118.547 149.703C118.974 150.099 119.484 150.297 120.078 150.297C121.266 150.297 121.859 149.755 121.859 148.672C121.859 148.047 121.401 147.463 120.484 146.922C120.13 146.745 119.776 146.573 119.422 146.406C119.068 146.239 118.708 146.068 118.344 145.891C117.323 145.391 116.604 144.891 116.188 144.391C115.656 143.755 115.391 142.937 115.391 141.937C115.391 140.614 115.844 139.521 116.75 138.656C117.677 137.792 118.802 137.359 120.125 137.359C122.073 137.359 123.521 138.364 124.469 140.375Z" fill="white"/>
<rect y="135" width="158" height="11" fill="black"/>
<path d="M27.2732 128.762C27.4875 128.504 27.7132 128.314 27.9503 128.193C28.1978 128.073 28.4567 128.021 28.727 128.038C29.1948 128.067 29.5644 128.251 29.8355 128.592C30.1171 128.933 30.234 129.488 30.1864 130.257L30.0184 132.971C29.9707 133.74 29.7859 134.282 29.4638 134.596C29.1527 134.9 28.7632 135.038 28.2954 135.009C27.8691 134.982 27.5334 134.842 27.2883 134.586C27.0432 134.331 26.8785 133.872 26.7943 133.209C26.7486 132.768 26.624 132.421 26.4204 132.169C26.0231 131.674 25.4485 131.263 24.6965 130.935C23.9549 130.607 23.1995 130.419 22.4301 130.372C21.4736 130.313 20.5822 130.466 19.7559 130.832C18.9296 131.199 18.1808 131.831 17.5094 132.729C16.8381 133.626 16.4625 134.72 16.3827 136.009L16.2543 138.083C16.159 139.622 16.6357 140.94 17.6845 142.038C18.7436 143.137 20.266 143.748 22.2518 143.871C23.437 143.944 24.4503 143.845 25.2916 143.574C25.7814 143.416 26.3137 143.079 26.8885 142.561C27.2418 142.249 27.5149 142.052 27.7078 141.97C27.9014 141.878 28.1178 141.839 28.3569 141.854C28.7832 141.88 29.1475 142.065 29.4498 142.407C29.7522 142.749 29.8898 143.138 29.8628 143.575C29.8357 144.012 29.5884 144.466 29.1209 144.938C28.4416 145.627 27.5901 146.148 26.5662 146.502C25.1903 146.98 23.6914 147.169 22.0695 147.069C20.1773 146.952 18.4963 146.456 17.0267 145.583C15.8385 144.883 14.8544 143.836 14.0746 142.441C13.2953 141.036 12.9549 139.538 13.0534 137.948L13.1876 135.78C13.2906 134.116 13.7712 132.591 14.6294 131.204C15.4986 129.807 16.6436 128.761 18.0642 128.066C19.4849 127.372 20.9646 127.072 22.5033 127.167C23.4286 127.224 24.2848 127.387 25.0718 127.655C25.8699 127.913 26.6037 128.282 27.2732 128.762ZM49.8815 138.834C49.7058 141.673 48.6548 143.982 46.7286 145.762C44.8135 147.533 42.6706 148.344 40.3002 148.198C38.1689 148.066 36.2941 147.162 34.6758 145.486C32.6752 143.41 31.7708 140.823 31.9627 137.725C32.1545 134.627 33.3714 132.166 35.6133 130.343C37.426 128.879 39.398 128.213 41.5293 128.345C43.8998 128.492 45.9258 129.567 47.6073 131.571C49.2998 133.564 50.0579 135.986 49.8815 138.834ZM46.6845 138.636C46.8049 136.692 46.3169 135.05 45.2206 133.708C44.1249 132.357 42.8285 131.635 41.3314 131.542C39.8447 131.45 38.4743 132.007 37.2203 133.213C35.9663 134.419 35.2794 135.989 35.1597 137.923C35.0399 139.857 35.5279 141.499 36.6236 142.851C37.7199 144.192 39.0114 144.909 40.4981 145.001C41.9953 145.093 43.3705 144.542 44.6239 143.346C45.8772 142.151 46.5641 140.581 46.6845 138.636ZM56.2998 135.803L55.7012 145.472L56.8552 145.544C57.6246 145.591 58.1611 145.776 58.4647 146.097C58.7794 146.409 58.9219 146.804 58.8923 147.282C58.8633 147.75 58.6732 148.125 58.3218 148.406C57.9815 148.677 57.4266 148.788 56.6573 148.741L52.4622 148.481C51.6928 148.433 51.1508 148.254 50.8361 147.942C50.5325 147.621 50.3955 147.221 50.4251 146.742C50.4534 146.285 50.6381 145.916 50.979 145.634C51.32 145.352 51.8284 145.233 52.5042 145.274L53.2785 132.767L52.7795 132.736C52.0101 132.689 51.4681 132.509 51.1534 132.197C50.8498 131.876 50.7128 131.476 50.7424 130.998C50.772 130.519 50.957 130.145 51.2973 129.874C51.6487 129.593 52.209 129.476 52.9784 129.524L56.6735 129.768L64.0516 143.093L64.6474 133.471L63.4934 133.4C62.724 133.352 62.182 133.172 61.8673 132.861C61.5637 132.539 61.4267 132.139 61.4563 131.661C61.4859 131.183 61.6708 130.808 62.0112 130.537C62.3625 130.256 62.9229 130.139 63.6923 130.187L67.8864 130.462C68.6557 130.51 69.1926 130.689 69.4968 131C69.8115 131.312 69.954 131.707 69.9244 132.185C69.8955 132.653 69.7105 133.028 69.3695 133.309C69.0286 133.591 68.5254 133.711 67.86 133.67L66.8877 149.374L63.7219 149.178L56.2998 135.803ZM84.8193 132.325C85.0336 132.067 85.2592 131.877 85.4963 131.756C85.7438 131.636 86.0027 131.584 86.273 131.601C86.7409 131.63 87.1104 131.814 87.3816 132.155C87.6631 132.496 87.7801 133.051 87.7324 133.82L87.5644 136.534C87.5168 137.303 87.3319 137.845 87.0098 138.159C86.6988 138.463 86.3093 138.601 85.8414 138.572C85.4152 138.545 85.0795 138.404 84.8344 138.149C84.5893 137.894 84.4246 137.435 84.3404 136.772C84.2946 136.331 84.17 135.984 83.9665 135.732C83.5692 135.237 82.9945 134.826 82.2426 134.498C81.501 134.17 80.7455 133.982 79.9762 133.935C79.0197 133.876 78.1283 134.029 77.302 134.395C76.4757 134.762 75.7268 135.394 75.0555 136.291C74.3841 137.189 74.0086 138.283 73.9287 139.572L73.8003 141.646C73.7051 143.185 74.1818 144.503 75.2305 145.601C76.2896 146.7 77.8121 147.311 79.7979 147.434C80.9831 147.507 81.9964 147.408 82.8377 147.137C83.3275 146.979 83.8598 146.642 84.4345 146.124C84.7878 145.812 85.061 145.615 85.2539 145.533C85.4475 145.441 85.6638 145.402 85.9029 145.417C86.3292 145.443 86.6935 145.627 86.9959 145.97C87.2982 146.312 87.4359 146.701 87.4088 147.138C87.3818 147.575 87.1345 148.029 86.6669 148.501C85.9877 149.19 85.1361 149.711 84.1123 150.065C82.7363 150.543 81.2374 150.732 79.6155 150.632C77.7233 150.515 76.0424 150.019 74.5727 149.146C73.3845 148.446 72.4005 147.399 71.6206 146.004C70.8414 144.599 70.501 143.101 70.5995 141.51L70.7337 139.343C70.8367 137.679 71.3173 136.154 72.1755 134.767C73.0447 133.37 74.1896 132.324 75.6103 131.629C77.0309 130.935 78.5106 130.635 80.0493 130.73C80.9746 130.787 81.8308 130.95 82.6178 131.218C83.4159 131.476 84.1497 131.845 84.8193 132.325ZM95.0732 143.198L94.7826 147.892L102.939 148.397L103.046 146.666C103.094 145.897 103.273 145.36 103.584 145.055C103.906 144.741 104.306 144.599 104.785 144.629C105.252 144.658 105.622 144.848 105.892 145.198C106.174 145.539 106.291 146.095 106.243 146.864L105.938 151.792L90.8886 150.86C90.1192 150.813 89.5772 150.633 89.2625 150.321C88.9589 150 88.8219 149.6 88.8515 149.122C88.8805 148.654 89.0703 148.285 89.421 148.014C89.7724 147.733 90.3276 147.616 91.0865 147.663L91.5856 147.694L92.3599 135.187L91.8609 135.156C91.0915 135.108 90.5495 134.929 90.2349 134.617C89.9312 134.295 89.7942 133.896 89.8238 133.417C89.8534 132.939 90.0384 132.564 90.3787 132.293C90.7301 132.012 91.2904 131.896 92.0598 131.943L106.406 132.847L106.105 137.713C106.058 138.472 105.879 139.009 105.567 139.323C105.256 139.628 104.861 139.765 104.383 139.735C103.905 139.706 103.525 139.52 103.243 139.179C102.972 138.839 102.86 138.284 102.908 137.515L103.011 135.846L95.557 135.385L95.2711 140.001L98.0783 140.175C98.1298 139.343 98.2409 138.812 98.4117 138.583C98.7655 138.093 99.2387 137.867 99.8313 137.904C100.299 137.933 100.668 138.122 100.939 138.473C101.22 138.814 101.337 139.369 101.29 140.139L101.062 143.819C101.019 144.516 100.907 144.978 100.725 145.207C100.363 145.675 99.9003 145.892 99.3389 145.857C98.7463 145.821 98.3046 145.537 98.0138 145.008C97.8727 144.759 97.8282 144.214 97.8803 143.372L95.0732 143.198ZM115.603 145.878L115.399 149.168L118.628 149.368C119.397 149.416 119.933 149.601 120.237 149.922C120.552 150.234 120.694 150.629 120.665 151.107C120.636 151.575 120.445 151.949 120.094 152.23C119.754 152.501 119.199 152.613 118.43 152.565L111.505 152.137C110.736 152.089 110.194 151.909 109.879 151.598C109.576 151.276 109.439 150.876 109.468 150.398C109.497 149.93 109.687 149.561 110.038 149.291C110.389 149.01 110.944 148.893 111.703 148.94L112.202 148.971L112.977 136.463L112.478 136.432C111.708 136.385 111.166 136.205 110.852 135.893C110.548 135.572 110.411 135.172 110.441 134.694C110.47 134.216 110.655 133.841 110.995 133.57C111.347 133.289 111.907 133.172 112.677 133.22L120.037 133.691C122.199 133.825 123.873 134.523 125.057 135.787C126.253 137.04 126.798 138.514 126.693 140.209C126.635 141.144 126.368 142.015 125.89 142.82C125.529 143.424 124.95 144.009 124.153 144.576C123.367 145.132 122.569 145.542 121.76 145.805C120.962 146.058 119.918 146.145 118.629 146.065L115.603 145.878ZM115.801 142.681L118.764 142.864C120.157 142.951 121.279 142.707 122.128 142.133C122.989 141.55 123.446 140.816 123.501 139.933C123.548 139.184 123.255 138.509 122.625 137.906C122.005 137.304 121.081 136.965 119.854 136.889L116.174 136.661L115.801 142.681ZM138.755 138.059L137.981 150.567L140.133 150.7C140.903 150.748 141.439 150.932 141.743 151.254C142.057 151.565 142.2 151.96 142.17 152.438C142.141 152.906 141.951 153.281 141.6 153.562C141.259 153.833 140.705 153.945 139.935 153.897L132.45 153.433C131.68 153.386 131.138 153.206 130.824 152.894C130.52 152.573 130.383 152.173 130.413 151.695C130.442 151.227 130.626 150.857 130.966 150.586C131.318 150.305 131.878 150.189 132.648 150.236L134.784 150.369L135.558 137.861L132.096 137.647L131.909 140.672C131.861 141.442 131.677 141.984 131.354 142.298C131.043 142.602 130.649 142.739 130.17 142.71C129.703 142.681 129.328 142.496 129.046 142.155C128.776 141.804 128.664 141.244 128.712 140.475L129.098 134.236L145.659 135.278L145.274 141.5C145.226 142.269 145.042 142.811 144.719 143.125C144.408 143.429 144.014 143.567 143.535 143.537C143.068 143.508 142.693 143.323 142.411 142.982C142.141 142.631 142.029 142.071 142.077 141.302L142.264 138.277L138.755 138.059Z" fill="#FF0000"/>
</svg>
