<svg width="158" height="163" viewBox="0 0 158 163" fill="none" xmlns="http://www.w3.org/2000/svg">
<path d="M114.75 106.75H41.25V49H114.75M99 12.25V22.75H57V12.25H46.5V22.75H41.25C35.4225 22.75 30.75 27.4225 30.75 33.25V106.75C30.75 109.535 31.8562 112.205 33.8254 114.175C35.7945 116.144 38.4652 117.25 41.25 117.25H114.75C117.535 117.25 120.205 116.144 122.175 114.175C124.144 112.205 125.25 109.535 125.25 106.75V33.25C125.25 30.4652 124.144 27.7945 122.175 25.8254C120.205 23.8562 117.535 22.75 114.75 22.75H109.5V12.25M104.25 70H78V96.25H104.25V70Z" fill="white"/>
<path d="M99.9927 112.717C98.4527 112.859 97.1146 112.456 95.9784 111.508C94.8422 110.561 94.2014 109.319 94.056 107.783L93.5546 102.347L77.2488 103.852C75.7089 103.994 74.3707 103.591 73.2345 102.643C72.0983 101.696 71.4575 100.454 71.3122 98.9179L69.3064 77.1769L58.4359 78.1798L58.9373 83.6151C59.0794 85.155 58.6768 86.495 57.7295 87.6348C56.7822 88.7746 55.5402 89.4136 54.0035 89.5517L26.8273 92.0589C25.2873 92.201 23.9492 91.7982 22.813 90.8506C21.6767 89.903 21.0359 88.6611 20.8906 87.1251L18.8848 65.3841C18.7428 63.8441 19.1455 62.506 20.0932 61.3698C21.0408 60.2336 22.2826 59.5928 23.8187 59.4474L50.9949 56.9402C52.5349 56.7982 53.8748 57.2008 55.0147 58.1481C56.1545 59.0954 56.7935 60.3373 56.9316 61.874L57.433 67.3093L68.3035 66.3064L66.2978 44.5654C66.1557 43.0254 66.5585 41.6873 67.5061 40.5511C68.4538 39.4149 69.6956 38.7741 71.2316 38.6287L87.5374 37.1244L87.0359 31.6892C86.8939 30.1492 87.2966 28.8111 88.2443 27.6749C89.1919 26.5386 90.4337 25.8978 91.9698 25.7525L119.146 23.2453C120.686 23.1032 122.026 23.5058 123.166 24.4531C124.306 25.4004 124.945 26.6424 125.083 28.1791L127.088 49.9201C127.231 51.4601 126.828 52.8 125.881 53.9399C124.933 55.0797 123.691 55.7187 122.155 55.8568L94.9784 58.364C93.4384 58.5061 92.1003 58.1033 90.9641 57.1557C89.8278 56.208 89.187 54.9662 89.0417 53.4302L88.5402 47.9949L77.6697 48.9978L81.6812 92.4798L92.5517 91.4769L92.0503 86.0417C91.9082 84.5017 92.311 83.1636 93.2586 82.0274C94.2062 80.8912 95.4481 80.2504 96.9841 80.105L124.16 77.5978C125.7 77.4558 127.04 77.8584 128.18 78.8057C129.32 79.7529 129.959 80.9949 130.097 82.5316L132.103 104.273C132.245 105.813 131.842 107.153 130.895 108.292C129.948 109.432 128.706 110.071 127.169 110.209L99.9927 112.717Z" fill="#FF0000"/>
<path d="M28.8594 133.469L25.9062 135.219C25.3542 134.26 24.8281 133.635 24.3281 133.344C23.8073 133.01 23.1354 132.844 22.3125 132.844C21.3021 132.844 20.4635 133.13 19.7969 133.703C19.1302 134.266 18.7969 134.974 18.7969 135.828C18.7969 137.005 19.6719 137.953 21.4219 138.672L23.8281 139.656C25.7865 140.448 27.2188 141.417 28.125 142.562C29.0312 143.698 29.4844 145.094 29.4844 146.75C29.4844 148.969 28.7448 150.802 27.2656 152.25C25.776 153.708 23.9271 154.438 21.7188 154.438C19.625 154.438 17.8958 153.818 16.5312 152.578C15.1875 151.339 14.349 149.594 14.0156 147.344L17.7031 146.531C17.8698 147.948 18.1615 148.927 18.5781 149.469C19.3281 150.51 20.4219 151.031 21.8594 151.031C22.9948 151.031 23.9375 150.651 24.6875 149.891C25.4375 149.13 25.8125 148.167 25.8125 147C25.8125 146.531 25.7448 146.104 25.6094 145.719C25.4844 145.323 25.2812 144.964 25 144.641C24.7292 144.307 24.375 144 23.9375 143.719C23.5 143.427 22.9792 143.151 22.375 142.891L20.0469 141.922C16.7448 140.526 15.0938 138.484 15.0938 135.797C15.0938 133.984 15.7865 132.469 17.1719 131.25C18.5573 130.021 20.2812 129.406 22.3438 129.406C25.125 129.406 27.2969 130.76 28.8594 133.469ZM45.0469 139.438V144.109C44.2448 143.13 43.526 142.458 42.8906 142.094C42.2656 141.719 41.5312 141.531 40.6875 141.531C39.3646 141.531 38.2656 141.995 37.3906 142.922C36.5156 143.849 36.0781 145.01 36.0781 146.406C36.0781 147.833 36.5 149.005 37.3438 149.922C38.1979 150.839 39.2865 151.297 40.6094 151.297C41.4531 151.297 42.1979 151.115 42.8438 150.75C43.4688 150.396 44.2031 149.708 45.0469 148.688V153.328C43.6198 154.068 42.1927 154.438 40.7656 154.438C38.4115 154.438 36.4427 153.677 34.8594 152.156C33.276 150.625 32.4844 148.724 32.4844 146.453C32.4844 144.182 33.2865 142.266 34.8906 140.703C36.4948 139.141 38.4635 138.359 40.7969 138.359C42.2969 138.359 43.7135 138.719 45.0469 139.438ZM49.2969 127.609H52.8125V140.047C54.0625 138.922 55.4427 138.359 56.9531 138.359C58.6719 138.359 60.0469 138.917 61.0781 140.031C61.9531 141 62.3906 142.547 62.3906 144.672V154H58.875V145C58.875 143.781 58.6562 142.901 58.2188 142.359C57.7917 141.807 57.099 141.531 56.1406 141.531C54.9115 141.531 54.0469 141.911 53.5469 142.672C53.0573 143.443 52.8125 144.766 52.8125 146.641V154H49.2969V127.609ZM80.7188 147.219H69.8125C69.9062 148.469 70.3125 149.464 71.0312 150.203C71.75 150.932 72.6719 151.297 73.7969 151.297C74.6719 151.297 75.3958 151.089 75.9688 150.672C76.5312 150.255 77.1719 149.484 77.8906 148.359L80.8594 150.016C80.401 150.797 79.9167 151.469 79.4062 152.031C78.8958 152.583 78.349 153.042 77.7656 153.406C77.1823 153.76 76.5521 154.021 75.875 154.188C75.1979 154.354 74.4635 154.438 73.6719 154.438C71.401 154.438 69.5781 153.708 68.2031 152.25C66.8281 150.781 66.1406 148.833 66.1406 146.406C66.1406 144 66.8073 142.052 68.1406 140.562C69.4844 139.094 71.2656 138.359 73.4844 138.359C75.724 138.359 77.4948 139.073 78.7969 140.5C80.0885 141.917 80.7344 143.88 80.7344 146.391L80.7188 147.219ZM77.1094 144.344C76.6198 142.469 75.4375 141.531 73.5625 141.531C73.1354 141.531 72.7344 141.599 72.3594 141.734C71.9844 141.859 71.6406 142.047 71.3281 142.297C71.026 142.536 70.7656 142.828 70.5469 143.172C70.3281 143.516 70.1615 143.906 70.0469 144.344H77.1094ZM95.7969 127.609H99.3281V154H95.7969V152.406C94.4115 153.76 92.8438 154.438 91.0938 154.438C89.0104 154.438 87.2812 153.677 85.9062 152.156C84.5417 150.604 83.8594 148.667 83.8594 146.344C83.8594 144.073 84.5417 142.177 85.9062 140.656C87.2604 139.125 88.9635 138.359 91.0156 138.359C92.7969 138.359 94.3906 139.089 95.7969 140.547V127.609ZM87.4531 146.344C87.4531 147.802 87.8438 148.99 88.625 149.906C89.4271 150.833 90.4375 151.297 91.6562 151.297C92.9583 151.297 94.0104 150.849 94.8125 149.953C95.6146 149.026 96.0156 147.849 96.0156 146.422C96.0156 144.995 95.6146 143.818 94.8125 142.891C94.0104 141.984 92.9688 141.531 91.6875 141.531C90.4792 141.531 89.4688 141.99 88.6562 142.906C87.8542 143.833 87.4531 144.979 87.4531 146.344ZM107.281 138.781V147.516C107.281 150.036 108.276 151.297 110.266 151.297C112.255 151.297 113.25 150.036 113.25 147.516V138.781H116.766V147.594C116.766 148.812 116.615 149.865 116.312 150.75C116.021 151.542 115.516 152.255 114.797 152.891C113.609 153.922 112.099 154.438 110.266 154.438C108.443 154.438 106.938 153.922 105.75 152.891C105.021 152.255 104.505 151.542 104.203 150.75C103.911 150.042 103.766 148.99 103.766 147.594V138.781H107.281ZM124.719 127.609V154H121.203V127.609H124.719ZM143.031 147.219H132.125C132.219 148.469 132.625 149.464 133.344 150.203C134.062 150.932 134.984 151.297 136.109 151.297C136.984 151.297 137.708 151.089 138.281 150.672C138.844 150.255 139.484 149.484 140.203 148.359L143.172 150.016C142.714 150.797 142.229 151.469 141.719 152.031C141.208 152.583 140.661 153.042 140.078 153.406C139.495 153.76 138.865 154.021 138.188 154.188C137.51 154.354 136.776 154.438 135.984 154.438C133.714 154.438 131.891 153.708 130.516 152.25C129.141 150.781 128.453 148.833 128.453 146.406C128.453 144 129.12 142.052 130.453 140.562C131.797 139.094 133.578 138.359 135.797 138.359C138.036 138.359 139.807 139.073 141.109 140.5C142.401 141.917 143.047 143.88 143.047 146.391L143.031 147.219ZM139.422 144.344C138.932 142.469 137.75 141.531 135.875 141.531C135.448 141.531 135.047 141.599 134.672 141.734C134.297 141.859 133.953 142.047 133.641 142.297C133.339 142.536 133.078 142.828 132.859 143.172C132.641 143.516 132.474 143.906 132.359 144.344H139.422Z" fill="white"/>
<rect y="136" width="158" height="11" fill="black"/>
<path d="M47.4499 137.148L47.8915 146.215C47.9878 148.192 47.3569 149.907 45.9989 151.36C44.6513 152.813 42.9787 153.588 40.9811 153.685C39.9927 153.733 39.0531 153.607 38.1625 153.306C37.2817 152.995 36.4763 152.518 35.7462 151.875C35.0266 151.232 34.4566 150.556 34.0361 149.847C33.6152 149.127 33.3748 148.153 33.315 146.925L32.8734 137.858C32.1971 137.891 31.6904 137.764 31.3531 137.478C31.0159 137.192 30.8359 136.815 30.8131 136.347C30.7898 135.868 30.9323 135.475 31.2406 135.168C31.549 134.861 32.0933 134.689 32.8737 134.651L37.071 134.431C37.841 134.393 38.3945 134.518 38.7318 134.804C39.0789 135.079 39.2641 135.456 39.2874 135.934C39.3107 136.413 39.1633 136.811 38.845 137.129C38.5367 137.436 37.9975 137.608 37.2276 137.646L36.0727 137.702L36.5281 147.05C36.5747 148.007 37.0113 148.836 37.838 149.536C38.6747 150.226 39.6548 150.543 40.7785 150.488C41.5276 150.452 42.2212 150.241 42.8595 149.855C43.4977 149.469 44.0085 148.928 44.3917 148.232C44.631 147.792 44.7358 147.266 44.7059 146.652L44.2506 137.304L43.0957 137.36C42.3257 137.397 41.7672 137.279 41.4201 137.003C41.0829 136.717 40.9026 136.335 40.8793 135.857C40.856 135.378 40.9985 134.985 41.3068 134.678C41.6251 134.36 42.1692 134.182 42.9391 134.145L47.138 133.956C47.9079 133.919 48.4612 134.038 48.798 134.313C49.1451 134.588 49.3303 134.965 49.3536 135.444C49.3764 135.912 49.2339 136.305 48.9261 136.622C48.6182 136.94 48.1262 137.115 47.4499 137.148ZM62.4638 150.558C62.4932 151.162 62.3045 151.677 61.8977 152.103C61.4908 152.53 60.9129 152.761 60.1638 152.798C59.4147 152.834 58.8169 152.66 58.3706 152.275C57.9243 151.89 57.6864 151.396 57.657 150.792C57.6276 150.189 57.8163 149.674 58.2231 149.247C58.6299 148.821 59.2079 148.589 59.957 148.553C60.7061 148.516 61.3039 148.691 61.7502 149.076C62.1965 149.461 62.4344 149.955 62.4638 150.558ZM84.5465 135.341L85.0178 145.017C85.0771 146.234 84.9213 147.212 84.5505 147.95C83.9805 149.093 83.1181 150.016 81.9635 150.719C80.8192 151.422 79.5968 151.804 78.2962 151.868C76.6211 151.949 74.3029 151.353 71.3416 150.079L71.0855 144.82C71.048 144.05 71.167 143.496 71.4426 143.16C71.7281 142.812 72.1102 142.627 72.5888 142.603C73.057 142.58 73.4448 142.728 73.7524 143.047C74.0698 143.355 74.2473 143.894 74.2848 144.664L74.4376 147.801C75.9385 148.426 77.2092 148.714 78.2497 148.663C78.8011 148.636 79.3673 148.484 79.9481 148.205C80.5285 147.916 80.961 147.587 81.2454 147.219C81.5299 146.85 81.7107 146.492 81.7876 146.144C81.8305 145.954 81.8347 145.506 81.8002 144.798L81.3472 135.497L77.4612 135.686C76.6913 135.724 76.1327 135.605 75.7856 135.33C75.4484 135.044 75.2681 134.661 75.2448 134.183C75.2215 133.704 75.364 133.311 75.6724 133.004C75.9906 132.686 76.5347 132.509 77.3046 132.471L86.2635 132.05C87.0334 132.013 87.5867 132.132 87.9235 132.408C88.2706 132.683 88.4558 133.06 88.4791 133.538C88.5024 134.017 88.355 134.415 88.0367 134.733C87.7284 135.04 87.1892 135.212 86.4193 135.25L84.5465 135.341ZM100.856 148.688C100.885 149.292 100.696 149.807 100.29 150.233C99.8828 150.66 99.3049 150.891 98.5558 150.928C97.8066 150.964 97.2089 150.79 96.7626 150.405C96.3162 150.02 96.0784 149.526 96.049 148.923C96.0196 148.319 96.2083 147.804 96.6151 147.378C97.0219 146.951 97.5999 146.719 98.349 146.683C99.0981 146.647 99.6958 146.821 100.142 147.206C100.589 147.591 100.826 148.085 100.856 148.688ZM126.209 139.585C126.347 142.425 125.557 144.836 123.839 146.818C122.131 148.789 120.09 149.832 117.718 149.948C115.585 150.052 113.622 149.36 111.829 147.872C109.612 146.03 108.428 143.559 108.277 140.458C108.126 137.358 109.064 134.778 111.091 132.718C112.731 131.064 114.618 130.185 116.751 130.081C119.123 129.965 121.255 130.81 123.147 132.616C125.049 134.411 126.07 136.734 126.209 139.585ZM123.009 139.741C122.914 137.795 122.248 136.216 121.011 135.004C119.773 133.782 118.405 133.207 116.906 133.28C115.419 133.352 114.118 134.057 113.005 135.394C111.891 136.731 111.382 138.367 111.476 140.302C111.57 142.238 112.236 143.817 113.474 145.039C114.712 146.251 116.075 146.821 117.562 146.748C119.061 146.675 120.367 145.976 121.481 144.649C122.594 143.322 123.104 141.686 123.009 139.741Z" fill="#FF0000"/>
</svg>
