<svg width="80" height="80" viewBox="0 0 80 80" fill="none" xmlns="http://www.w3.org/2000/svg">
<path d="M30 58L58 40L30 22V58ZM40 80C34.4667 80 29.2667 78.9493 24.4 76.848C19.5333 74.7467 15.3 71.8973 11.7 68.3C8.10001 64.7027 5.25067 60.4693 3.15201 55.6C1.05334 50.7307 0.00267173 45.5307 5.06329e-06 40C-0.0026616 34.4693 1.04801 29.2693 3.15201 24.4C5.25601 19.5307 8.10534 15.2973 11.7 11.7C15.2947 8.10267 19.528 5.25333 24.4 3.152C29.272 1.05067 34.472 0 40 0C45.528 0 50.728 1.05067 55.6 3.152C60.472 5.25333 64.7053 8.10267 68.3 11.7C71.8947 15.2973 74.7453 19.5307 76.852 24.4C78.9587 29.2693 80.008 34.4693 80 40C79.992 45.5307 78.9413 50.7307 76.848 55.6C74.7547 60.4693 71.9053 64.7027 68.3 68.3C64.6947 71.8973 60.4613 74.748 55.6 76.852C50.7387 78.956 45.5387 80.0053 40 80Z" fill="#FF0000"/>
</svg>
