<?xml version="1.0" encoding="UTF-8" standalone="no"?>
<!DOCTYPE svg PUBLIC "-//W3C//DTD SVG 1.1//EN" "http://www.w3.org/Graphics/SVG/1.1/DTD/svg11.dtd">
<svg width="100%" height="100%" viewBox="0 0 208 75" version="1.1" xmlns="http://www.w3.org/2000/svg" xmlns:xlink="http://www.w3.org/1999/xlink" xml:space="preserve" xmlns:serif="http://www.serif.com/" style="fill-rule:evenodd;clip-rule:evenodd;stroke-linejoin:round;stroke-miterlimit:2;">
    <g id="Artboard2" transform="matrix(0.987951,0,0,1.05799,48.2493,-59.121)">
        <rect x="-48.838" y="55.881" width="209.561" height="69.986" style="fill:none;"/>
        <g transform="matrix(1.0122,0,0,0.945192,-42.7646,43.6483)">
            <g transform="matrix(1,0,0,1,-0.627542,-2.0503)">
                <g transform="matrix(1.32022,0,0,1.14744,-52.0555,-7.74883)">
                    <path d="M44.576,35.753C45.468,34.917 47.229,33.348 50.047,31.156C61.365,22.354 66.332,22.644 68.479,21.865C70.31,21.201 72.305,21.932 73.465,23.691C74.626,25.45 74.701,27.858 73.653,29.708C72.791,31.228 69.972,35.847 67.05,40.9C68.451,39.981 69.938,39.055 71.5,38.148C82.667,31.668 82.98,32.466 95.194,28.456C97.126,27.821 99.191,28.722 100.272,30.672C101.353,32.621 101.193,35.156 99.878,36.905C98.517,38.715 97.263,40.368 96.097,41.89C102.907,38.398 111.669,34.58 125.683,29.023C139.846,23.407 143.933,23.477 144.452,23.517C146.31,23.213 148.158,24.259 149.073,26.178C149.97,28.058 149.772,30.358 148.615,31.994C148.346,32.434 147.308,33.948 143.852,37.673C160.684,29.641 166.028,29.615 167.705,29.562C167.73,29.562 167.762,29.561 167.791,29.56C169.558,29.315 171.303,30.284 172.23,32.063C173.072,33.678 173.083,35.664 172.314,37.272C175.111,35.816 178.953,33.828 179.349,33.634C181.657,32.501 184.329,33.737 185.313,36.391C186.297,39.046 185.223,42.121 182.916,43.253C182.34,43.536 174.243,47.733 173.353,48.219C162.461,54.159 162.878,54.739 153.058,62.314C151.131,63.8 148.539,63.377 147.047,61.332C145.555,59.287 145.642,56.276 147.249,54.35C150.485,50.47 152.446,48.176 156.004,43.469C149.97,45.918 141.23,50.071 128.57,57.128C123.47,59.97 123.394,59.712 118.144,62.329C116.054,63.371 113.617,62.471 112.443,60.225C111.269,57.979 111.722,55.08 113.502,53.445C120.254,47.241 125.362,42.425 129.236,38.677C129.041,38.754 128.844,38.832 128.644,38.911C94.895,52.293 92.516,55.289 72.615,68.846C70.619,70.206 68.054,69.618 66.663,67.482C65.272,65.347 65.502,62.348 67.197,60.526C73.536,53.712 77.095,50.114 82.256,43.854C80.496,44.713 78.416,45.848 75.593,47.486C67.592,52.128 61.672,57.349 59.053,59.005L56.57,60.099L55.234,60.17L53.947,59.84L52.222,58.579L51.153,56.772L50.757,54.931L50.836,53.117C51.09,51.44 52.443,48.048 54.486,44.121C55.531,42.113 56.748,39.907 57.998,37.706C57.1,38.333 56.147,39.035 55.137,39.82C50.861,43.145 49.588,44.59 49.21,44.901L47.756,45.726L46.636,45.939L45.564,45.843L44.557,45.472L43.626,44.821L42.348,43.013L42.012,41.972L41.861,40.54C41.861,38.403 42.978,36.564 44.576,35.753ZM49.986,37.32C50.59,38.208 50.951,39.326 50.951,40.54C50.951,39.04 50.518,38.021 49.986,37.32Z" style="fill:rgb(255,0,0);fill-opacity:0.96;"/>
                </g>
                <g transform="matrix(2.60602,-1.66533e-16,1.66533e-16,2.60602,-197.435,13.6911)">
                    <g transform="matrix(12,0,0,12,148.722,15.8506)">
                    </g>
                    <text x="77.466px" y="15.851px" style="font-family:'StencilArmyWWI', 'Stencil Army WW I';font-size:12px;fill:rgb(0,169,255);">R<tspan x="85.411px 93.427px 104.976px 112.991px 124.54px 132.638px 140.653px " y="15.851px 15.851px 15.851px 15.851px 15.851px 15.851px 15.851px ">EMEMBER</tspan></text>
                </g>
                <path d="M16.039,56.299C16.039,56.023 16.263,55.799 16.539,55.799C16.815,55.799 17.039,56.023 17.039,56.299L17.039,82.963C17.039,83.239 16.815,83.463 16.539,83.463C16.263,83.463 16.039,83.239 16.039,82.963L16.039,56.299Z" style="fill:rgb(255,0,0);"/>
                <path d="M38.584,69.712C38.584,69.436 38.808,69.212 39.084,69.212C39.36,69.212 39.584,69.436 39.584,69.712L39.584,83.335C39.584,83.611 39.36,83.835 39.084,83.835C38.808,83.835 38.584,83.611 38.584,83.335L38.584,69.712Z" style="fill:rgb(255,0,0);"/>
                <path d="M36.266,71.011C36.266,70.735 36.49,70.511 36.766,70.511C37.042,70.511 37.266,70.735 37.266,71.011L37.266,75.941C37.266,76.217 37.042,76.441 36.766,76.441C36.49,76.441 36.266,76.217 36.266,75.941L36.266,71.011Z" style="fill:rgb(255,0,0);"/>
                <path d="M100.226,62.095C100.226,61.819 100.45,61.595 100.726,61.595C101.002,61.595 101.226,61.819 101.226,62.095L101.226,80.241C101.226,80.517 101.002,80.741 100.726,80.741C100.45,80.741 100.226,80.517 100.226,80.241L100.226,62.095Z" style="fill:rgb(255,0,0);"/>
                <path d="M98.462,63.469C98.462,63.193 98.687,62.969 98.962,62.969C99.238,62.969 99.462,63.193 99.462,63.469L99.462,68.35C99.462,68.626 99.238,68.85 98.962,68.85C98.687,68.85 98.462,68.626 98.462,68.35L98.462,63.469Z" style="fill:rgb(255,0,0);"/>
                <path d="M74.678,49.916C74.678,49.64 74.902,49.416 75.178,49.416C75.454,49.416 75.678,49.64 75.678,49.916L75.678,69.496C75.678,69.772 75.454,69.996 75.178,69.996C74.902,69.996 74.678,69.772 74.678,69.496L74.678,49.916Z" style="fill:rgb(255,0,0);"/>
                <path d="M73.46,51.565C73.46,51.289 73.684,51.065 73.96,51.065C74.236,51.065 74.46,51.289 74.46,51.565L74.46,55.705C74.46,55.981 74.236,56.205 73.96,56.205C73.684,56.205 73.46,55.981 73.46,55.705L73.46,51.565Z" style="fill:rgb(255,0,0);"/>
                <path d="M76.307,50.494C76.307,50.218 76.531,49.994 76.807,49.994C77.083,49.994 77.307,50.218 77.307,50.494L77.307,76.414C77.307,76.69 77.083,76.914 76.807,76.914C76.531,76.914 76.307,76.69 76.307,76.414L76.307,50.494Z" style="fill:rgb(255,0,0);"/>
                <path d="M142.454,59.291C142.454,59.015 142.678,58.791 142.954,58.791C143.23,58.791 143.454,59.015 143.454,59.291L143.454,75.703C143.454,75.979 143.23,76.203 142.954,76.203C142.678,76.203 142.454,75.979 142.454,75.703L142.454,59.291Z" style="fill:rgb(255,0,0);"/>
                <path d="M147.838,60.531C147.838,60.255 148.062,60.031 148.338,60.031C148.614,60.031 148.838,60.255 148.838,60.531L148.838,68.102C148.838,68.378 148.614,68.602 148.338,68.602C148.062,68.602 147.838,68.378 147.838,68.102L147.838,60.531Z" style="fill:rgb(255,0,0);"/>
                <path d="M146.026,63.764C146.026,63.488 146.25,63.264 146.526,63.264C146.802,63.264 147.026,63.488 147.026,63.764L147.026,67.341C147.026,67.617 146.802,67.841 146.526,67.841C146.25,67.841 146.026,67.617 146.026,67.341L146.026,63.764Z" style="fill:rgb(255,0,0);"/>
                <path d="M61.114,56.605C61.114,56.33 61.338,56.105 61.614,56.105C61.889,56.105 62.114,56.33 62.114,56.605L62.114,61.848C62.114,62.124 61.889,62.348 61.614,62.348C61.338,62.348 61.114,62.124 61.114,61.848L61.114,56.605Z" style="fill:rgb(255,0,0);"/>
                <path d="M116.836,55.131C116.836,54.855 117.06,54.631 117.336,54.631C117.612,54.631 117.836,54.855 117.836,55.131L117.836,63.678C117.836,63.954 117.612,64.178 117.336,64.178C117.06,64.178 116.836,63.954 116.836,63.678L116.836,55.131Z" style="fill:rgb(255,0,0);"/>
                <g transform="matrix(1,0,0,1,0.0361237,0.00164182)">
                    <g transform="matrix(1,-0,-0,1,-5.40858,14.9905)">
                        <path d="M56.089,45.075C56.089,45.282 55.921,45.45 55.714,45.45C55.507,45.45 55.339,45.282 55.339,45.075C55.339,44.868 55.507,44.7 55.714,44.7C55.921,44.7 56.089,44.868 56.089,45.075Z" style="fill:rgb(0,169,255);"/>
                        <path d="M55.214,38.258C55.214,37.982 55.438,37.758 55.714,37.758C55.99,37.758 56.214,37.982 56.214,38.258L56.214,44.85C56.214,45.126 55.99,45.35 55.714,45.35C55.438,45.35 55.214,45.126 55.214,44.85L55.214,38.258Z" style="fill:rgb(0,169,255);"/>
                    </g>
                </g>
                <g transform="matrix(1,0,0,1,0.0361237,0.00164182)">
                    <path d="M48.72,53.622C48.72,53.346 48.944,53.122 49.22,53.122C49.496,53.122 49.72,53.346 49.72,53.622L49.72,57.247C49.72,57.523 49.496,57.747 49.22,57.747C48.944,57.747 48.72,57.523 48.72,57.247L48.72,53.622Z" style="fill:rgb(0,169,255);"/>
                </g>
                <path d="M55.357,45.737C55.357,45.461 55.581,45.237 55.857,45.237C56.133,45.237 56.357,45.461 56.357,45.737L56.357,49.8C56.357,50.076 56.133,50.3 55.857,50.3C55.581,50.3 55.357,50.076 55.357,49.8L55.357,45.737Z" style="fill:rgb(0,169,255);"/>
                <path d="M68.799,54.354C68.799,54.078 69.023,53.854 69.299,53.854C69.575,53.854 69.799,54.078 69.799,54.354L69.799,59.758C69.799,60.034 69.575,60.258 69.299,60.258C69.023,60.258 68.799,60.034 68.799,59.758L68.799,54.354Z" style="fill:rgb(0,169,255);"/>
                <path d="M79.719,53.958C79.719,53.682 79.943,53.458 80.219,53.458C80.495,53.458 80.719,53.682 80.719,53.958L80.719,57.391C80.719,57.667 80.495,57.891 80.219,57.891C79.943,57.891 79.719,57.667 79.719,57.391L79.719,53.958Z" style="fill:rgb(0,169,255);"/>
                <path d="M86.33,43.69C86.33,43.414 86.554,43.19 86.83,43.19C87.106,43.19 87.33,43.414 87.33,43.69L87.33,48.058C87.33,48.334 87.106,48.558 86.83,48.558C86.554,48.558 86.33,48.334 86.33,48.058L86.33,43.69Z" style="fill:rgb(0,169,255);"/>
                <path d="M87.568,43.993C87.568,43.717 87.792,43.493 88.068,43.493C88.344,43.493 88.568,43.717 88.568,43.993L88.568,45.223C88.568,45.499 88.344,45.723 88.068,45.723C87.792,45.723 87.568,45.499 87.568,45.223L87.568,43.993Z" style="fill:rgb(0,169,255);"/>
                <path d="M100.137,53.836C100.137,53.56 100.361,53.336 100.637,53.336C100.913,53.336 101.137,53.56 101.137,53.836L101.137,59.778C101.137,60.054 100.913,60.278 100.637,60.278C100.361,60.278 100.137,60.054 100.137,59.778L100.137,53.836Z" style="fill:rgb(0,169,255);"/>
                <path d="M101.694,54.231C101.694,53.955 101.918,53.731 102.194,53.731C102.47,53.731 102.694,53.955 102.694,54.231L102.694,55.562C102.694,55.838 102.47,56.062 102.194,56.062C101.918,56.062 101.694,55.838 101.694,55.562L101.694,54.231Z" style="fill:rgb(0,169,255);"/>
                <path d="M120.723,54.336C120.723,54.06 120.947,53.836 121.223,53.836C121.499,53.836 121.723,54.06 121.723,54.336L121.723,60.197C121.723,60.473 121.499,60.697 121.223,60.697C120.947,60.697 120.723,60.473 120.723,60.197L120.723,54.336Z" style="fill:rgb(0,169,255);"/>
                <path d="M122.385,55.3L122.885,54.811L122.885,55.198L122.385,55.708C122.109,55.708 121.885,55.483 121.885,55.208C121.885,55.204 121.885,55.201 121.885,55.198L121.885,54.811C121.885,54.808 121.885,54.804 121.885,54.8C121.885,54.524 122.109,54.3 122.385,55.3Z" style="fill:rgb(0,169,255);"/>
                <path d="M137.163,53.881C137.163,53.605 137.387,53.381 137.663,53.381C137.939,53.381 138.163,53.605 138.163,53.881L138.163,59.571C138.163,59.847 137.939,60.071 137.663,60.071C137.387,60.071 137.163,59.847 137.163,59.571L137.163,53.881Z" style="fill:rgb(0,169,255);"/>
                <path d="M144.567,53.1C144.567,52.824 144.791,52.6 145.067,52.6C145.343,52.6 145.567,52.824 145.567,53.1L145.567,56.036C145.567,56.312 145.343,56.536 145.067,56.536C144.791,56.536 144.567,56.312 144.567,56.036L144.567,53.1Z" style="fill:rgb(0,169,255);"/>
                <path d="M143.427,54.13C143.427,53.854 143.651,53.63 143.927,53.63C144.203,53.63 144.427,53.854 144.427,54.13L144.427,55.541C144.427,55.817 144.203,56.041 143.927,56.041C143.651,56.041 143.427,55.817 143.427,55.541L143.427,54.13Z" style="fill:rgb(0,169,255);"/>
                <path d="M159.882,53.849C159.882,53.573 160.106,53.349 160.382,53.349C160.658,53.349 160.882,53.573 160.882,53.849L160.882,61.519C160.882,61.795 160.658,62.019 160.382,62.019C160.106,62.019 159.882,61.795 159.882,61.519L159.882,53.849Z" style="fill:rgb(0,169,255);"/>
                <path d="M161.061,54.67C161.061,54.394 161.285,54.17 161.561,54.17C161.837,54.17 162.061,54.394 162.061,54.67L162.061,55.708C162.061,55.984 161.837,56.208 161.561,56.208C161.285,56.208 161.061,55.984 161.061,55.708L161.061,54.67Z" style="fill:rgb(0,169,255);"/>
                <path d="M171.986,53.676C171.986,53.4 172.211,53.176 172.486,53.176C172.762,53.176 172.986,53.4 172.986,53.676L172.986,58.695C172.986,58.971 172.762,59.195 172.486,59.195C172.211,59.195 171.986,58.971 171.986,58.695L171.986,53.676Z" style="fill:rgb(0,169,255);"/>
                <path d="M173.125,54.552C173.125,54.276 173.349,54.052 173.625,54.052C173.901,54.052 174.125,54.276 174.125,54.552L174.125,55.792C174.125,56.068 173.901,56.292 173.625,56.292C173.349,56.292 173.125,56.068 173.125,55.792L173.125,54.552Z" style="fill:rgb(0,169,255);"/>
                <path d="M180.408,48.192C180.408,47.916 180.632,47.692 180.908,47.692C181.184,47.692 181.408,47.916 181.408,48.192L181.408,53.616C181.408,53.892 181.184,54.116 180.908,54.116C180.632,54.116 180.408,53.892 180.408,53.616L180.408,48.192Z" style="fill:rgb(0,169,255);"/>
                <path d="M179.712,47.288C179.712,47.013 179.936,46.788 180.212,46.788C180.488,46.788 180.712,47.013 180.712,47.288L180.712,49.838C180.712,50.114 180.488,50.338 180.212,50.338C179.936,50.338 179.712,50.114 179.712,49.838L179.712,47.288Z" style="fill:rgb(0,169,255);"/>
                <path d="M187.119,43.952C187.119,43.676 187.343,43.452 187.619,43.452C187.895,43.452 188.119,43.676 188.119,43.952L188.119,47.273C188.119,47.549 187.895,47.773 187.619,47.773C187.343,47.773 187.119,47.549 187.119,47.273L187.119,43.952Z" style="fill:rgb(0,169,255);"/>
                <path d="M28.539,54.124C28.539,53.848 28.764,53.624 29.039,53.624C29.315,53.624 29.539,53.848 29.539,54.124L29.539,57.241C29.539,57.517 29.315,57.741 29.039,57.741C28.764,57.741 28.539,57.517 28.539,57.241L28.539,54.124Z" style="fill:rgb(0,169,255);"/>
                <path d="M29.855,53.749C29.855,53.473 30.079,53.249 30.355,53.249C30.631,53.249 30.855,53.473 30.855,53.749L30.855,59.407C30.855,59.683 30.631,59.907 30.355,59.907C30.079,59.907 29.855,59.683 29.855,59.407L29.855,53.749Z" style="fill:rgb(0,169,255);"/>
                <path d="M35.72,54.484C35.72,54.208 35.944,53.984 36.22,53.984C36.496,53.984 36.72,54.208 36.72,54.484L36.72,57.023C36.72,57.299 36.496,57.523 36.22,57.523C35.944,57.523 35.72,57.299 35.72,57.023L35.72,54.484Z" style="fill:rgb(0,169,255);"/>
                <path d="M37.182,54.304C37.182,54.028 37.406,53.804 37.682,53.804C37.957,53.804 38.182,54.028 38.182,54.304L38.182,57.025C38.182,57.301 37.957,57.525 37.682,57.525C37.406,57.525 37.182,57.301 37.182,57.025L37.182,54.304Z" style="fill:rgb(0,169,255);"/>
                <path d="M39.339,42.975C39.339,42.699 39.563,42.475 39.839,42.475C40.115,42.475 40.339,42.699 40.339,42.975L40.339,47.89C40.339,48.166 40.115,48.39 39.839,48.39C39.563,48.39 39.339,48.166 39.339,47.89L39.339,42.975Z" style="fill:rgb(0,169,255);"/>
                <path d="M37.881,43.623C37.881,43.348 38.105,43.123 38.381,43.123C38.657,43.123 38.881,43.348 38.881,43.623L38.881,45.431C38.881,45.707 38.657,45.931 38.381,45.931C38.105,45.931 37.881,45.707 37.881,45.431L37.881,43.623Z" style="fill:rgb(0,169,255);"/>
                <path d="M15.868,47.612C15.868,47.336 16.092,47.112 16.368,47.112C16.644,47.112 16.868,47.336 16.868,47.612L16.868,54.927C16.868,55.203 16.644,55.427 16.368,55.427C16.092,55.427 15.868,55.203 15.868,54.927L15.868,47.612Z" style="fill:rgb(0,169,255);"/>
                <path d="M17.201,50.902C17.201,50.626 17.426,50.402 17.701,50.402C17.977,50.402 18.201,50.626 18.201,50.902L18.201,52.071C18.201,52.347 17.977,52.571 17.701,52.571C17.426,52.571 17.201,52.347 17.201,52.071L17.201,50.902Z" style="fill:rgb(0,169,255);"/>
                <path d="M8.096,53.763C8.096,53.487 8.32,53.263 8.596,53.263C8.872,53.263 9.096,53.487 9.096,53.763L9.096,59.453C9.096,59.729 8.872,59.953 8.596,59.953C8.32,59.953 8.096,59.729 8.096,59.453L8.096,53.763Z" style="fill:rgb(0,169,255);"/>
                <path d="M9.093,54.211C9.093,53.935 9.317,53.711 9.593,53.711C9.869,53.711 10.093,53.935 10.093,54.211L10.093,55.896C10.093,56.172 9.869,56.396 9.593,56.396C9.317,56.396 9.093,56.172 9.093,55.896L9.093,54.211Z" style="fill:rgb(0,169,255);"/>
                <path d="M15.602,35.744C15.602,35.468 15.826,35.244 16.102,35.244C16.378,35.244 16.602,35.468 16.602,35.744L16.602,39.289C16.602,39.565 16.378,39.789 16.102,39.789C15.826,39.789 15.602,39.565 15.602,39.289L15.602,35.744Z" style="fill:rgb(0,169,255);"/>
                <path d="M41.561,36.091C41.561,35.815 41.785,35.591 42.061,35.591C42.337,35.591 42.561,35.815 42.561,36.091L42.561,38.763C42.561,39.039 42.337,39.263 42.061,39.263C41.785,39.263 41.561,39.039 41.561,38.763L41.561,36.091Z" style="fill:rgb(0,169,255);"/>
                <path d="M137.904,35.792C137.904,35.516 138.128,35.292 138.404,35.292C138.68,35.292 138.904,35.516 138.904,35.792L138.904,40.17C138.904,40.446 138.68,40.67 138.404,40.67C138.128,40.67 137.904,40.446 137.904,40.17L137.904,35.792Z" style="fill:rgb(0,169,255);"/>
                <path d="M160.915,43.335C160.915,43.059 161.139,42.835 161.415,42.835C161.691,42.835 161.915,43.059 161.915,43.335L161.915,45.944C161.915,46.22 161.691,46.444 161.415,46.444C161.139,46.444 160.915,46.22 160.915,45.944L160.915,43.335Z" style="fill:rgb(0,169,255);"/>
                <path d="M162.353,44.013C162.353,43.737 162.577,43.513 162.853,43.513C163.129,43.513 163.353,43.737 163.353,44.013L163.353,45.374C163.353,45.65 163.129,45.874 162.853,45.874C162.577,45.874 162.353,45.65 162.353,45.374L162.353,44.013Z" style="fill:rgb(0,169,255);"/>
                <path d="M163.308,35.077C163.308,34.801 163.532,34.577 163.808,34.577C164.084,34.577 164.308,34.801 164.308,35.077L164.308,38.298C164.308,38.574 164.084,38.798 163.808,38.798C163.532,38.798 163.308,38.574 163.308,38.298L163.308,35.077Z" style="fill:rgb(0,169,255);"/>
                <path d="M180.193,35.979C180.193,35.703 180.417,35.479 180.693,35.479C180.969,35.479 181.193,35.703 181.193,35.979L181.193,38.346C181.193,38.622 180.969,38.846 180.693,38.846C180.417,38.846 180.193,38.622 180.193,38.346L180.193,35.979Z" style="fill:rgb(0,169,255);"/>
            </g>
        </g>
    </g>
</svg>
