<svg width="31" height="29" viewBox="0 0 31 29" fill="none" xmlns="http://www.w3.org/2000/svg">
<path d="M14.1667 24.3667C10.625 24.3667 7.49417 22.5533 5.66667 19.8333C5.70917 17 11.3333 15.4417 14.1667 15.4417C17 15.4417 22.6242 17 22.6667 19.8333C21.7303 21.2281 20.4652 22.3711 18.9829 23.1617C17.5006 23.9522 15.8466 24.366 14.1667 24.3667ZM14.1667 4.25C15.2938 4.25 16.3748 4.69777 17.1719 5.4948C17.9689 6.29183 18.4167 7.37283 18.4167 8.5C18.4167 9.62717 17.9689 10.7082 17.1719 11.5052C16.3748 12.3022 15.2938 12.75 14.1667 12.75C13.0395 12.75 11.9585 12.3022 11.1615 11.5052C10.3644 10.7082 9.91667 9.62717 9.91667 8.5C9.91667 7.37283 10.3644 6.29183 11.1615 5.4948C11.9585 4.69777 13.0395 4.25 14.1667 4.25ZM14.1667 0C12.3063 0 10.4641 0.366432 8.74532 1.07837C7.02654 1.79031 5.46482 2.83382 4.14932 4.14932C1.49256 6.80609 0 10.4094 0 14.1667C0 17.9239 1.49256 21.5272 4.14932 24.184C5.46482 25.4995 7.02654 26.543 8.74532 27.255C10.4641 27.9669 12.3063 28.3333 14.1667 28.3333C17.9239 28.3333 21.5272 26.8408 24.184 24.184C26.8408 21.5272 28.3333 17.9239 28.3333 14.1667C28.3333 6.3325 21.9583 0 14.1667 0Z" fill="#171717"/>
<path d="M1 26.5379C7 12.5379 28.5 4.37123 30.5 5.03789" stroke="#FF0000"/>
</svg>
